<svg width="136" height="173" viewBox="0 0 136 173" fill="none" xmlns="http://www.w3.org/2000/svg">
<path d="M60.016 102.366H50.82V172.062H0V45.98H50.82V72.358H59.774C74.052 72.358 81.554 65.34 81.554 52.272C81.554 41.866 75.02 36.3 62.92 36.3H0V2.662C19.602 0.967999 39.446 0 52.272 0C105.754 0 131.164 17.424 131.164 45.738C131.164 67.518 117.612 80.586 105.512 84.458V85.184C124.388 91.476 135.52 104.544 135.52 123.904C135.52 151.734 110.11 172.062 61.952 172.062H60.742V136.004H63.404C76.472 136.004 83.49 130.196 83.49 119.548C83.49 108.174 75.262 102.366 60.016 102.366Z" fill="#133E34"/>
</svg>
