<svg width="254" height="254" viewBox="0 0 254 254" fill="none" xmlns="http://www.w3.org/2000/svg">
<rect width="254" height="254" fill="#F9F3EF"/>
<path d="M122.746 145.304H113.55V215H62.73V88.918H113.55V115.296H122.504C136.782 115.296 144.284 108.278 144.284 95.21C144.284 84.804 137.75 79.238 125.65 79.238H62.73V45.6C82.332 43.906 102.176 42.938 115.002 42.938C168.484 42.938 193.894 60.362 193.894 88.676C193.894 110.456 180.342 123.524 168.242 127.396V128.122C187.118 134.414 198.25 147.482 198.25 166.842C198.25 194.672 172.84 215 124.682 215H123.472V178.942H126.134C139.202 178.942 146.22 173.134 146.22 162.486C146.22 151.112 137.992 145.304 122.746 145.304Z" fill="#133E34"/>
</svg>
