<svg width="16" height="16" viewBox="0 0 16 16" fill="none" xmlns="http://www.w3.org/2000/svg">
<path d="M7.88857 1.5394L10.5194 3.05859L11.8533 2.29057L7.88857 0L1.26611 3.82661L2.5933 4.59462L7.88857 1.5394Z" fill="#FF5CAA"/>
<path d="M13.1805 3.05859L7.88859 6.11382L5.2578 4.59463L3.92725 5.36264L7.88859 7.64985L14.5144 3.82661L13.1805 3.05859Z" fill="#FF5CAA"/>
<path d="M2.33055 8.19896L1 7.43094V12.0053L7.62245 15.832V14.2959L2.33055 11.2373V8.19896Z" fill="#FF5CAA"/>
<path d="M1 5.89483L6.2919 8.95005V11.9884L7.62245 12.7598V8.18203L1 4.3588V5.89483Z" fill="#FF5CAA"/>
<path d="M12.1194 7.4309V5.89487L8.1547 8.18207V15.8319L9.48526 15.0639V8.95009L12.1194 7.4309Z" fill="#FF5CAA"/>
<path d="M13.4466 5.12681V11.2373L10.8158 12.7598V14.2958L14.7805 12.0053V4.3588L13.4466 5.12681Z" fill="#FF5CAA"/>
</svg>
