<svg width="60" height="58" viewBox="0 0 60 58" fill="none" xmlns="http://www.w3.org/2000/svg">
<path d="M2.50024 2.47882H57.5003V55.5212H2.50024V2.47882Z" fill="#2E001E"/>
<path d="M0 0V58H60V0H0ZM2.50021 2.47883H57.5002V55.5216H2.50021V2.47883Z" fill="#FF2BC2"/>
<path d="M43.575 24.3649C43.2002 24.1914 42.725 24.1169 42.1251 24.1169C38.9751 24.1169 36.875 26.5212 36.875 30.5116C36.875 35.0722 39.0251 36.9063 41.825 36.9063C42.4248 36.9063 43.0751 36.8318 43.5498 36.6337V24.3645H43.575V24.3649ZM32.3749 30.7101C32.3749 24.9351 36.1248 20.4236 42.275 20.4236C42.7997 20.4236 43.0751 20.4236 43.575 20.4731V14.0289C43.575 13.8803 43.7001 13.7808 43.8252 13.7808H47.8505C48.0503 13.7808 48.1007 13.8553 48.1007 13.9789V36.6337C48.1007 37.3029 48.1007 38.1457 48.2258 39.0626C48.2258 39.2361 48.2258 39.2607 48.0759 39.3352C45.9758 40.3265 43.7757 40.7727 41.676 40.7727C36.2508 40.7727 32.3758 37.4515 32.3758 30.7092L32.3749 30.7101ZM23.8501 26.6947L30.8503 40.1539C30.9754 40.3519 30.9003 40.5505 30.7005 40.5505H26.3503C26.0754 40.5505 25.9503 40.476 25.8252 40.2284C24.225 36.9567 22.6 33.561 20.9251 30.0413H20.8752C19.3753 33.3625 17.7252 36.9817 16.1249 40.2533C15.9998 40.4514 15.8747 40.5259 15.6749 40.5259H11.525C11.2748 40.5259 11.2501 40.3279 11.3752 40.1788L18.2251 27.1163L11.6002 14.1284C11.4503 13.9303 11.6002 13.7567 11.7752 13.7567H16.0754C16.3257 13.7567 16.4503 13.8062 16.5255 14.0293C18.1005 17.3259 19.7007 20.5731 21.2005 23.8942H21.2505C22.7004 20.6226 24.3006 17.3259 25.8256 14.0788C25.9507 13.8807 26.0254 13.7567 26.2756 13.7567H30.3004C30.5002 13.7567 30.5754 13.9053 30.4503 14.1284L23.8501 26.6952V26.6947Z" fill="#FF2BC2"/>
</svg>
