<svg width="60" height="59" viewBox="0 0 60 59" fill="none" xmlns="http://www.w3.org/2000/svg">
<g clip-path="url(#clip0_13_286)">
<path d="M2.49976 2.49976H57.4998V56H2.49976V2.49976Z" fill="#1C0A00"/>
<path d="M2.49974 2.49974H57.4998V56H2.49974V2.49974ZM0 58.5002H60V0H0V58.5002ZM39.2997 20.8497C39.2997 20.6499 39.3748 20.5496 39.5998 20.5496H43.5247C43.7245 20.5496 43.8248 20.6247 43.8248 20.8497V40.575C43.8248 40.7747 43.7749 40.8751 43.5247 40.8751H39.6497C39.3996 40.8751 39.3249 40.75 39.3249 40.5502V20.8502H39.2997V20.8497ZM39.0247 15.1748C39.0247 13.5746 40.1497 12.6247 41.5748 12.6247C43.0999 12.6247 44.125 13.6498 44.125 15.1748C44.125 16.825 43.0499 17.725 41.5249 17.725C40.075 17.725 39.0247 16.825 39.0247 15.1748ZM27.7748 29.0748C27.075 26.2997 25.4249 20.2499 24.7998 17.3249H24.7499C24.2247 20.2499 22.8999 25.1999 21.8496 29.0748H27.7748ZM20.8245 33.1248L18.8495 40.6249C18.7996 40.8247 18.7244 40.8746 18.4747 40.8746H14.7995C14.5493 40.8746 14.4994 40.7995 14.5493 40.4998L21.6494 15.6496C21.7745 15.1996 21.8492 14.7995 21.8996 13.5746C21.8996 13.3996 21.9747 13.3244 22.0994 13.3244H27.3495C27.5246 13.3244 27.5997 13.3744 27.6497 13.5746L35.5998 40.5498C35.6497 40.7495 35.5998 40.8746 35.4 40.8746H31.2501C31.0503 40.8746 30.9252 40.8247 30.8752 40.6497L28.8251 33.1248H20.825H20.8245Z" fill="#FF7F18"/>
</g>
<defs>
<clipPath id="clip0_13_286">
<rect width="60" height="58.5002" fill="white"/>
</clipPath>
</defs>
</svg>
