<svg width="60" height="59" viewBox="0 0 60 59" fill="none" xmlns="http://www.w3.org/2000/svg">
<g clip-path="url(#clip0_13_290)">
<path d="M10.625 0H49.375C55.249 0 60 4.7915 60 10.7156V48.2893C60 54.2134 55.249 59.0049 49.375 59.0049H10.625C4.75098 59 0 54.2085 0 48.2844V10.7107C0 4.7915 4.75098 0 10.625 0Z" fill="#001E36"/>
<path d="M31.4991 41.7004H15.6543C15.3711 41.7004 15.2588 41.5575 15.2588 41.2522V15.4825C15.2344 15.32 15.3516 15.1526 15.542 15.128C15.5664 15.128 15.5908 15.128 15.6348 15.128H20.5274C20.6446 15.1033 20.8106 15.1969 20.8106 15.3397C20.8106 15.3643 20.8106 15.3889 20.8106 15.4086V36.5789H32.3682C32.627 36.5789 32.6953 36.6971 32.6514 36.9335L31.9239 41.3212C31.9239 41.4394 31.8555 41.5575 31.7823 41.6265C31.6846 41.6807 31.5918 41.7004 31.4991 41.7004Z" fill="#31A8FF"/>
<path d="M35.4981 21.5248H39.8731C40.1319 21.5248 40.3174 21.6923 40.3858 21.9237C40.4786 22.0912 40.5518 22.3029 40.5958 22.5147C40.6446 22.7757 40.6885 23.0317 40.7129 23.2927C40.7374 23.5783 40.7618 23.8837 40.7618 24.189C41.5088 23.3173 42.4219 22.5836 43.4278 22.0173C44.5752 21.382 45.8594 21.0718 47.1485 21.121C47.3145 21.0964 47.4756 21.2146 47.5 21.4017C47.5 21.4264 47.5 21.451 47.5 21.4953V26.4296C47.5 26.6414 47.3829 26.7152 47.1045 26.7152C45.4883 26.6217 43.8526 26.927 42.378 27.5672C41.8848 27.8035 41.3965 28.0842 41.0206 28.5127V41.3754C41.0206 41.6364 40.9278 41.7299 40.6934 41.7299H35.8252C35.6153 41.7545 35.4493 41.6364 35.4297 41.4246C35.4297 41.4 35.4297 41.3557 35.4297 41.331V27.3505C35.4297 26.7349 35.4297 26.1243 35.4053 25.4644C35.3809 24.8045 35.3809 24.1447 35.3565 23.5045C35.3321 22.9382 35.2881 22.3965 35.2149 21.8302C35.1905 21.712 35.2637 21.5692 35.3809 21.5445C35.4297 21.5002 35.4541 21.5002 35.4981 21.5248Z" fill="#31A8FF"/>
</g>
<defs>
<clipPath id="clip0_13_290">
<rect width="60" height="59" fill="white"/>
</clipPath>
</defs>
</svg>
