<svg width="60" height="59" viewBox="0 0 60 59" fill="none" xmlns="http://www.w3.org/2000/svg">
<path d="M2.49976 2.52112H57.4998V56.4785H2.49976V2.52112Z" fill="#0C0824"/>
<path d="M2.49974 2.5211H57.4998V56.4784H2.49974V2.5211ZM0 59H60V0H0V59ZM40.4498 24.2048C38.4748 24.2048 37.7998 25.2132 37.7998 26.0456C37.7998 26.9533 38.2498 27.5837 40.8998 28.9706C44.8247 30.8867 46.0501 32.7275 46.0501 35.4251C46.0501 39.4594 43 41.6278 38.8749 41.6278C36.7 41.6278 34.8249 41.174 33.7498 40.5436C33.5748 40.4678 33.55 40.3421 33.55 40.1401V36.4336C33.55 36.1812 33.6751 36.1059 33.8502 36.2321C35.4252 37.2659 37.2252 37.7198 38.8753 37.7198C40.8503 37.7198 41.6752 36.8879 41.6752 35.7533C41.6752 34.8456 41.1001 34.0387 38.5752 32.7275C35.0251 31.0129 33.55 29.2733 33.55 26.3737C33.55 23.121 36.075 20.4234 40.4503 20.4234C42.6004 20.4234 44.1002 20.751 44.9251 21.1296C45.1249 21.2557 45.1753 21.4572 45.1753 21.6338V25.088C45.1753 25.2895 45.0502 25.4156 44.8004 25.3399C43.7006 24.6341 42.0757 24.2052 40.4507 24.2052L40.4498 24.2048ZM18.9499 27.2051C19.525 27.2555 19.9749 27.2555 20.9748 27.2555C23.8998 27.2555 26.6498 26.2217 26.6498 22.2129C26.6498 19.0106 24.6747 17.3972 21.3497 17.3972C20.3498 17.3972 19.3999 17.4475 18.9499 17.4729V27.2056V27.2051ZM14.4998 13.8168C14.4998 13.6402 14.8499 13.5141 15.0497 13.5141C16.6499 13.4383 19.0246 13.3879 21.4995 13.3879C28.4246 13.3879 31.1245 17.2206 31.1245 22.1117C31.1245 28.5158 26.5247 31.2643 20.8745 31.2643C19.9246 31.2643 19.5997 31.2139 18.9247 31.2139V40.8962C18.9247 41.0977 18.8495 41.1989 18.6245 41.1989H14.7995C14.5997 41.1989 14.4994 41.1231 14.4994 40.8962V13.8168H14.4998Z" fill="#31C5F0"/>
</svg>
