<svg width="59" height="58" viewBox="0 0 59 58" fill="none" xmlns="http://www.w3.org/2000/svg">
<g clip-path="url(#clip0_13_152)">
<path d="M0.00244141 49.9642C0.00244141 54.0493 3.35194 57.3603 7.48357 57.3603H50.5407C54.673 57.3603 58.022 54.0489 58.022 49.9642V7.39634C58.022 3.31099 54.6726 0 50.5409 0H7.4838C3.35149 0 0.00244141 3.31144 0.00244141 7.39612V49.964V49.9642Z" fill="#563D7C"/>
<path d="M24.0619 25.3725V17.2495H31.2942C31.9832 17.2495 32.6473 17.3062 33.2868 17.4198C33.9264 17.5332 34.4923 17.7358 34.9844 18.0277C35.4762 18.3197 35.8698 18.725 36.1652 19.2437C36.4602 19.7626 36.608 20.4274 36.608 21.2379C36.608 22.6972 36.1651 23.7512 35.2794 24.3996C34.394 25.0483 33.2624 25.3725 31.8846 25.3725H24.0619ZM16.3374 11.3152V46.0451H33.3607C34.9352 46.0451 36.4686 45.8506 37.961 45.4614C39.4535 45.0722 40.7818 44.4724 41.9463 43.6617C43.1105 42.8511 44.0372 41.8051 44.726 40.5244C45.415 39.2434 45.7592 37.7274 45.7592 35.9763C45.7592 33.8036 45.2262 31.9472 44.1603 30.407C43.0942 28.8666 41.4787 27.7884 39.3138 27.1722C40.8883 26.4265 42.0775 25.4698 42.8811 24.3024C43.6846 23.135 44.0864 21.6759 44.0864 19.9246C44.0864 18.3033 43.8158 16.9415 43.2746 15.8388C42.7334 14.7364 41.9707 13.8527 40.9867 13.1879C40.0028 12.5231 38.822 12.0448 37.4443 11.753C36.0668 11.4611 34.5415 11.3152 32.8687 11.3152H16.3374ZM24.0619 40.1108V30.5771H32.475C34.1478 30.5771 35.4927 30.958 36.5096 31.7202C37.5263 32.4823 38.0349 33.755 38.0349 35.5385C38.0349 36.4466 37.879 37.1923 37.5674 37.776C37.2557 38.3597 36.8376 38.8219 36.3127 39.1623C35.788 39.5029 35.1811 39.746 34.4923 39.8921C33.8033 40.0377 33.082 40.1108 32.3275 40.1108H24.0619Z" fill="white"/>
</g>
<defs>
<clipPath id="clip0_13_152">
<rect width="58.0196" height="57.3603" fill="white" transform="translate(0.00244141)"/>
</clipPath>
</defs>
</svg>
