<svg width="81" height="79" viewBox="0 0 81 79" fill="none" xmlns="http://www.w3.org/2000/svg">
<path d="M15.5752 66.692L10.0221 4.90366H71.0614L65.5009 66.6822L40.5046 73.5547L15.5752 66.692Z" fill="#1572B6"/>
<path d="M40.5417 68.3029L60.7415 62.7495L65.4935 9.95685H40.5417V68.3029Z" fill="#33A9DC"/>
<path d="M40.5417 32.342H50.654L51.3512 24.582H40.5417V17.0034H59.7031L59.5201 19.0359L57.6435 39.9206H40.5417V32.342Z" fill="white"/>
<path d="M40.5887 52.0228L40.5541 52.0326L32.044 49.7524L31.5001 43.7086H23.8281L24.8987 55.6073L40.5516 59.9176L40.5887 59.9078V52.0228Z" fill="#EBEBEB"/>
<path d="M50.0037 39.5994L49.084 49.7475L40.5615 52.0277V59.9128L56.2268 55.6074L56.343 54.3275L57.6707 39.5994H50.0037Z" fill="white"/>
<path d="M40.5689 17.0034V24.582H22.1098L21.9565 22.878L21.6079 19.0359L21.4249 17.0034H40.5689ZM40.5417 32.342V39.9206H32.138L31.9847 38.2166L31.6385 34.3746L31.4556 32.342H40.5417Z" fill="#EBEBEB"/>
</svg>
