<svg width="42" height="62" viewBox="0 0 42 62" fill="none" xmlns="http://www.w3.org/2000/svg">
<path d="M10.5 62C16.2935 62 21 57.3732 21 51.6666V41.3333H10.5C4.70654 41.3333 0 45.9601 0 51.6666C0 57.3732 4.70654 62 10.5 62Z" fill="#0ACF83"/>
<path d="M0 31C0 25.2985 4.70654 20.6667 10.5 20.6667H21V41.3334H10.5C4.70654 41.3334 0 36.7066 0 31Z" fill="#A259FF"/>
<path d="M0 10.3333C0 4.63184 4.70654 0 10.5 0H21V20.6667H10.5C4.70654 20.6667 0 16.0399 0 10.3333Z" fill="#F24E1E"/>
<path d="M21 0H31.5C37.2935 0 42 4.63184 42 10.3333C42 16.0399 37.2986 20.6667 31.5 20.6667H21V0Z" fill="#FF7262"/>
<path d="M42 31C42 36.7066 37.2986 41.3334 31.5 41.3334C25.7014 41.3334 21 36.7066 21 31C21 25.2985 25.7014 20.6667 31.5 20.6667C37.2986 20.6667 42 25.2985 42 31Z" fill="#1ABCFE"/>
</svg>
