<svg width="61" height="61" viewBox="0 0 61 61" fill="none" xmlns="http://www.w3.org/2000/svg">
<g clip-path="url(#clip0_13_754)">
<path d="M59.8496 27.7824L33.2164 1.15061C31.6835 -0.38321 29.1959 -0.38321 27.6611 1.15061L22.1306 6.68112L29.1463 13.6968C30.7766 13.1459 32.6462 13.5155 33.9458 14.8151C35.2516 16.123 35.6185 18.0085 35.0543 19.6441L41.8155 26.4056C43.4513 25.842 45.3387 26.2066 46.6452 27.5152C48.4712 29.3405 48.4712 32.2987 46.6452 34.1252C44.8188 35.9518 41.8605 35.9518 40.0332 34.1252C38.6597 32.7503 38.3204 30.7332 39.0157 29.0412L32.7103 22.7358L32.7096 39.329C33.1667 39.555 33.5841 39.8535 33.9458 40.213C35.7717 42.0382 35.7717 44.9967 33.9458 46.8246C32.1194 48.6503 29.1597 48.6503 27.3359 46.8246C25.5099 44.9967 25.5099 42.0385 27.3359 40.2132C27.7734 39.7755 28.2935 39.4287 28.8659 39.1932V22.4453C28.2926 22.2113 27.7723 21.8644 27.3359 21.4252C25.9524 20.0437 25.6198 18.0138 26.3287 16.3151L19.4128 9.39847L1.1509 27.6592C-0.383633 29.1944 -0.383633 31.6823 1.1509 33.2164L27.7845 59.8486C29.3179 61.3826 31.8051 61.3826 33.3403 59.8486L59.8493 33.34C61.3834 31.8055 61.3834 29.3162 59.8493 27.7824" fill="#DE4C36"/>
</g>
<defs>
<clipPath id="clip0_13_754">
<rect width="61" height="61" fill="white"/>
</clipPath>
</defs>
</svg>
