<svg width="59" height="59" viewBox="0 0 59 59" fill="none" xmlns="http://www.w3.org/2000/svg">
<g clip-path="url(#clip0_13_752)">
<path fill-rule="evenodd" clip-rule="evenodd" d="M29.0098 0C12.9819 0 0 12.9819 0 29.0098C0 41.8466 8.30406 52.6891 19.8355 56.5329C21.2859 56.7867 21.8299 55.9164 21.8299 55.1549C21.8299 54.4659 21.7936 52.1814 21.7936 49.7518C14.5049 51.0935 12.6193 47.975 12.0391 46.3432C11.7127 45.5091 10.2985 42.9345 9.06556 42.2455C8.05022 41.7016 6.59973 40.3599 9.0293 40.3236C11.3138 40.2874 12.9456 42.4268 13.4896 43.2971C16.1004 47.6849 20.2706 46.4519 21.9387 45.6904C22.1925 43.8048 22.954 42.5356 23.788 41.8104C17.3334 41.0851 10.5886 38.583 10.5886 27.4868C10.5886 24.332 11.7127 21.7211 13.5621 19.6904C13.272 18.9652 12.2566 15.9917 13.8522 12.0028C13.8522 12.0028 16.2818 11.2413 21.8299 14.9763C24.1507 14.3236 26.6165 13.9972 29.0823 13.9972C31.5482 13.9972 34.014 14.3236 36.3348 14.9763C41.8829 11.205 44.3125 12.0028 44.3125 12.0028C45.908 15.9917 44.8927 18.9652 44.6026 19.6904C46.452 21.7211 47.5761 24.2957 47.5761 27.4868C47.5761 38.6193 40.795 41.0851 34.3404 41.8104C35.392 42.7169 36.2985 44.4575 36.2985 47.1772C36.2985 51.0573 36.2623 54.1758 36.2623 55.1549C36.2623 55.9164 36.8062 56.823 38.2567 56.5329C44.0156 54.5885 49.0197 50.8873 52.5649 45.95C56.1102 41.0127 58.0179 35.088 58.0196 29.0098C58.0196 12.9819 45.0377 0 29.0098 0Z" fill="#111111"/>
</g>
<defs>
<clipPath id="clip0_13_752">
<rect width="58.0196" height="58.0196" fill="white"/>
</clipPath>
</defs>
</svg>
