<svg width="81" height="80" viewBox="0 0 81 80" fill="none" xmlns="http://www.w3.org/2000/svg">
<path d="M15.5482 67.2525L9.99268 4.94485H71.0369L65.4739 67.2426L40.4777 74.1728L15.5482 67.2525Z" fill="#E44F26"/>
<path d="M40.5148 68.8769L60.7145 63.2768L65.4665 10.0405H40.5148V68.8769Z" fill="#F1662A"/>
<path d="M40.5147 33.1478H30.4025L29.7053 25.3226H40.5147V17.6803H21.3534L21.5364 19.7324L23.4129 40.7901H40.5147V33.1478ZM40.5147 52.994L40.4801 53.0039L31.97 50.707L31.4261 44.6125H23.7541L24.8247 56.6087L40.4801 60.9552L40.5147 60.9453V52.994Z" fill="#EBEBEB"/>
<path d="M40.4875 33.1478V40.7901H49.8976L49.0125 50.7021L40.4875 53.0014V60.9527L56.1553 56.6087L56.269 55.3181L58.064 35.1999L58.2519 33.1478H40.4875ZM40.4875 17.6803V25.3226H58.9467L59.1 23.6067L59.4486 19.7324L59.6315 17.6803H40.4875Z" fill="white"/>
</svg>
