<svg width="80" height="80" viewBox="0 0 80 80" fill="none" xmlns="http://www.w3.org/2000/svg">
<path d="M5.61401 4.94485H74.8419V74.1728H5.61401V4.94485Z" fill="#F5DE19"/>
<path d="M52.118 59.0292C52.7078 60.2273 53.6242 61.2344 54.7616 61.9343C55.8989 62.6342 57.2109 62.9984 58.5463 62.9851C61.2412 62.9851 62.9645 61.6376 62.9645 59.7709C62.9645 57.5457 61.1942 56.7496 58.2273 55.4516L56.6005 54.7544C51.9029 52.7542 48.7876 50.2496 48.7876 44.9537C48.7876 40.0756 52.4962 36.3595 58.3139 36.3595C60.1971 36.2235 62.0787 36.645 63.724 37.5714C65.3693 38.4978 66.7054 39.8881 67.5657 41.5689L62.4799 44.8202C62.1486 43.9868 61.5719 43.2737 60.8261 42.7757C60.0803 42.2776 59.2007 42.018 58.304 42.0313C57.9127 41.9921 57.5176 42.0349 57.1438 42.1568C56.77 42.2788 56.4258 42.4773 56.1329 42.7397C55.8401 43.002 55.6051 43.3225 55.4429 43.6807C55.2808 44.0389 55.1951 44.427 55.1912 44.8202C55.1912 46.7709 56.4002 47.5621 59.1916 48.776L60.8184 49.4733C66.3468 51.8443 69.4719 54.2599 69.4719 59.6918C69.4719 65.549 64.8707 68.7582 58.6921 68.7582C56.2848 68.9116 53.8844 68.365 51.7808 67.1844C49.6771 66.0038 47.9601 64.2397 46.8369 62.1049L52.118 59.0292ZM29.1368 59.5929C30.1579 61.4052 31.0875 62.9381 33.3226 62.9381C35.4588 62.9381 36.8087 62.1024 36.8087 58.8512V36.7304H43.3137V58.9377C43.3137 65.6726 39.3578 68.7384 33.5995 68.7384C31.5641 68.8497 29.5426 68.3424 27.8009 67.2833C26.0591 66.2243 24.6786 64.6629 23.8408 62.8046L29.1368 59.5929Z" fill="black"/>
</svg>
