<svg width="54" height="54" viewBox="0 0 54 54" fill="none" xmlns="http://www.w3.org/2000/svg">
<g clip-path="url(#clip0_13_756)">
<path fill-rule="evenodd" clip-rule="evenodd" d="M52.7475 40.0808L52.5058 40.7151C48.3882 48.8102 41.0888 53.7782 30.6782 53.9956C25.8134 54.0976 21.1728 52.8378 18.145 51.4672C11.6059 48.5042 6.10837 43.0039 3.1069 37.1311C-1.19974 28.7122 -1.97757 16.9975 6.97849 8.25037C7.11472 8.25037 5.89304 10.1488 6.02927 10.1488L5.78317 10.9606C-0.672393 31.3558 19.2129 48.8324 38.54 46.8364C43.1894 46.3484 49.1133 43.7802 52.7475 40.0808Z" fill="#21609B"/>
<path fill-rule="evenodd" clip-rule="evenodd" d="M41.0493 31.6486C45.9141 31.6841 50.9898 29.3864 54 26.1661C51.3677 32.9083 43.7476 37.242 33.5303 35.8625C24.9741 34.7048 16.8267 26.0153 15.9873 17.308C15.3721 10.9694 17.5606 7.19024 21.1685 2.5993C19.916 4.99901 19.4458 6.84869 19.3316 8.02858C17.9561 21.7437 30.1773 31.5776 41.0493 31.6486Z" fill="#21609B"/>
<path fill-rule="evenodd" clip-rule="evenodd" d="M53.5123 14.6244C52.7564 16.3765 48.4058 19.6811 46.481 20.0936C38.8697 21.7304 33.9961 18.0887 31.4429 13.9414C31.065 13.3204 30.3619 11.6304 30.2344 11.2001C29.2457 7.80237 29.6983 2.66141 32.6514 0C31.7637 2.52834 31.6319 5.4692 32.1021 7.38098C32.3877 8.53425 33.2491 10.5525 34.1148 11.8211C35.688 14.1321 36.6856 14.691 38.7115 15.9197C39.6211 16.4697 40.6011 16.9133 41.023 17.0375C42.939 17.6052 46.9864 19.1045 53.5123 14.6244Z" fill="#21609B"/>
</g>
<defs>
<clipPath id="clip0_13_756">
<rect width="54" height="54" fill="white"/>
</clipPath>
</defs>
</svg>
