<svg width="109" height="65" viewBox="0 0 109 65" fill="none" xmlns="http://www.w3.org/2000/svg">
<path d="M25.7183 16.9534H46.2779V18.5681H27.6028V30.724H45.1635V32.3387H27.6028V45.685H46.4909V47.3019H25.7183V16.9534ZM48.1194 16.9534H50.3029L59.9836 30.2997L69.8793 16.9534L83.3333 0L61.2248 31.7022L72.6265 47.3019H70.3462L59.9836 33.1005L49.5758 47.2976H47.3492L58.8262 31.698L48.1194 16.9534ZM73.4311 18.5681V16.9534H96.8583V18.5681H86.0654V47.2997H84.1809V18.5681H73.4246H73.4311ZM0 16.9534H2.36638L34.8504 65L21.4265 47.3019L1.97055 19.2471L1.8845 47.3019H0V16.9534ZM96.669 45.1949C96.5326 45.1974 96.3986 45.1598 96.284 45.0869C96.1695 45.014 96.0795 44.9091 96.0256 44.7855C95.9718 44.6619 95.9564 44.5253 95.9816 44.3932C96.0068 44.261 96.0713 44.1392 96.167 44.0433C96.2627 43.9475 96.3851 43.8819 96.5187 43.855C96.6523 43.8281 96.791 43.841 96.9171 43.8922C97.0432 43.9433 97.151 44.0304 97.2268 44.1422C97.3025 44.2541 97.3427 44.3856 97.3423 44.5201C97.3446 44.6085 97.3289 44.6964 97.296 44.7786C97.2631 44.8608 97.2138 44.9356 97.1509 44.9986C97.0881 45.0615 97.013 45.1114 96.9302 45.1451C96.8474 45.1788 96.7586 45.1958 96.669 45.1949ZM98.5212 43.4168H99.5302C99.5303 43.5424 99.5569 43.6666 99.6082 43.7816C99.6595 43.8966 99.7344 43.9998 99.8282 44.0847C99.922 44.1697 100.033 44.2345 100.153 44.2751C100.274 44.3157 100.401 44.3313 100.528 44.3207C101.184 44.3207 101.557 43.9303 101.557 43.2004V38.5748H102.583V43.2067C102.583 44.5223 101.813 45.2798 100.539 45.2798C99.343 45.2798 98.5212 44.5456 98.5212 43.4189V43.4168ZM103.925 43.3595H104.943C105.031 43.9791 105.644 44.3737 106.528 44.3737C107.354 44.3737 107.959 43.9494 107.959 43.3722C107.959 42.8736 107.574 42.5744 106.698 42.3707L105.838 42.1586C104.642 41.8806 104.095 41.3098 104.095 40.3465C104.095 39.1816 105.057 38.405 106.5 38.405C107.845 38.405 108.826 39.1816 108.886 40.2829H107.886C107.789 39.6803 107.257 39.3026 106.487 39.3026C105.676 39.3026 105.136 39.6887 105.136 40.2786C105.136 40.7454 105.485 41.0149 106.345 41.2143L107.075 41.3905C108.432 41.7024 108.991 42.2392 108.991 43.2322C108.991 44.4841 108.008 45.2691 106.442 45.2691C104.975 45.2691 103.99 44.5201 103.917 43.3489L103.925 43.3595Z" fill="black"/>
</svg>
