<svg width="105" height="53" viewBox="0 0 105 53" fill="none" xmlns="http://www.w3.org/2000/svg">
<path fill-rule="evenodd" clip-rule="evenodd" d="M52.5 53C81.4929 53 105 41.1352 105 26.4957C105 11.8648 81.4929 0 52.5 0C23.5071 0 0 11.8648 0 26.5043C0 41.1352 23.5071 53 52.5 53ZM80.2197 21.2698C79.8181 20.8272 78.7585 20.6059 77.0325 20.6059H74.4263L72.8967 28.4278H74.3921C75.4431 28.4278 76.3318 28.3342 77.0752 28.1469C77.7246 27.9852 78.2458 27.7554 78.6389 27.4575C79.0234 27.1681 79.3481 26.7596 79.6216 26.2319C79.9292 25.6446 80.177 24.9126 80.3479 24.036C80.5103 23.2189 80.553 22.5465 80.4846 22.0103C80.4419 21.6613 80.3564 21.4145 80.2197 21.2698ZM46.6211 5.83877H52.4402C53.3801 5.83877 54.1492 6.60479 54.1492 7.54103C54.1492 7.68572 54.1321 7.83042 54.0979 7.9666L53.1238 12.9627H56.2341C58.0029 12.9627 59.5154 13.1245 60.78 13.4394C62.1814 13.7969 63.3008 14.3501 64.1382 15.1161C64.8645 15.78 65.3772 16.5971 65.6848 17.5674L66.2915 14.4437C66.4026 13.6096 67.1204 12.9627 67.9834 12.9627H79.2627C81.1426 12.9627 82.8003 13.2181 84.2358 13.7373C85.7483 14.282 86.9958 15.1076 87.97 16.2141C88.9526 17.3376 89.5935 18.6653 89.884 20.2059C90.1575 21.6613 90.1233 23.2785 89.7729 25.0744C89.6277 25.7978 89.4312 26.5128 89.1833 27.2107C88.9355 27.9001 88.6365 28.5555 88.2861 29.1768C87.9272 29.8066 87.5256 30.411 87.0813 30.9642C86.6284 31.5259 86.1243 32.0707 85.5688 32.5728C84.8938 33.2027 84.1846 33.7389 83.4412 34.1815C82.6721 34.6411 81.8774 34.9986 81.0486 35.2709C80.2454 35.5348 79.3225 35.7305 78.2971 35.8582C77.2803 35.9859 76.1951 36.054 75.05 36.054H71.4355L70.3076 41.7055C70.1965 42.5396 69.4788 43.1864 68.6157 43.1864H62.7539C62.6514 43.1864 62.5403 43.1779 62.4292 43.1524C61.5063 42.9737 60.8997 42.0885 61.0706 41.1608L62.0789 35.9944C61.9421 36.0284 61.7969 36.0454 61.6516 36.0454H55.7385C54.7986 36.0454 54.0295 35.2794 54.0295 34.3432C54.0295 34.1985 54.0466 34.0538 54.0808 33.9176L56.3708 22.1635C56.4734 21.6443 56.5076 21.2443 56.4734 20.9549C56.4648 20.8698 56.5332 20.9123 56.5076 20.8783L56.2683 20.8187C55.9265 20.7336 55.448 20.691 54.8328 20.691H51.5857L48.877 34.6751C48.7231 35.4922 48.0054 36.054 47.2021 36.054H41.3831C40.4431 36.054 39.6741 35.2879 39.6741 34.3517C39.6741 34.207 39.6912 34.0623 39.7253 33.9261L40.033 32.3345L39.7766 32.5728C39.1016 33.2027 38.3923 33.7389 37.6489 34.1815C36.8799 34.6411 36.0852 34.9986 35.2563 35.2709C34.4531 35.5348 33.5303 35.7305 32.5049 35.8582C31.488 35.9859 30.4028 36.054 29.2578 36.054H25.6348L24.5325 41.7055C24.4214 42.5396 23.7036 43.1864 22.8406 43.1864H16.9788C16.8762 43.1864 16.7651 43.1779 16.6541 43.1524C15.7312 42.9737 15.1245 42.0885 15.2954 41.1608L20.5078 14.4437C20.6189 13.6096 21.3367 12.9627 22.1997 12.9627H33.479C35.3589 12.9627 37.0166 13.2181 38.4521 13.7373C39.9731 14.282 41.2122 15.1076 42.1863 16.2141C42.4768 16.546 42.7417 16.9035 42.981 17.278L44.9463 7.22611C45.1001 6.40902 45.8179 5.83877 46.6211 5.83877ZM34.4531 21.2698C34.0515 20.8272 32.9919 20.6059 31.2659 20.6059H28.6511L27.1216 28.4278H28.6169C29.668 28.4278 30.5566 28.3342 31.3 28.1469C31.9495 27.9852 32.4707 27.7554 32.8638 27.4575C33.2483 27.1681 33.573 26.7596 33.8464 26.2319C34.1541 25.6446 34.4019 24.9126 34.5728 24.036C34.7351 23.2189 34.7778 22.5465 34.7095 22.0103C34.6667 21.6613 34.5813 21.4145 34.4531 21.2698Z" fill="#6884BA"/>
<path fill-rule="evenodd" clip-rule="evenodd" d="M77.0325 18.9036C79.2627 18.9036 80.7495 19.3122 81.4844 20.1293C82.2278 20.9463 82.3987 22.3507 82.0142 24.3509C81.6126 26.4276 80.8264 27.9086 79.6729 28.7938C78.5193 29.679 76.7505 30.1215 74.3921 30.1215H70.8289L73.0164 18.8951H77.0325V18.9036ZM46.6211 7.54102H52.4402L51.0474 14.6735H56.2341C59.4983 14.6735 61.7456 15.2438 62.9846 16.3758C64.2236 17.5078 64.5911 19.3462 64.0955 21.8826L61.6602 34.3602H55.7471L58.0627 22.4954C58.3276 21.1421 58.2251 20.2229 57.7722 19.7377C57.3108 19.2441 56.3452 18.9973 54.8499 18.9973H50.2014L47.2022 34.3602H41.3831L46.6211 7.54102ZM31.2659 18.9036C33.4961 18.9036 34.9829 19.3122 35.7178 20.1293C36.4612 20.9463 36.6406 22.3507 36.2476 24.3509C35.8459 26.4276 35.0598 27.9086 33.9062 28.7938C32.7527 29.679 30.9839 30.1215 28.6255 30.1215H25.0623L27.2498 18.8951H31.2659V18.9036ZM16.9788 41.4842H22.8406L24.2334 34.3517H29.2578C31.4709 34.3517 33.2996 34.1219 34.7266 33.6537C36.1621 33.1941 37.4609 32.4111 38.6316 31.3216C39.6143 30.4194 40.4089 29.4321 41.0156 28.3427C41.6223 27.2617 42.0581 26.0617 42.3145 24.7509C42.9382 21.5762 42.4683 19.0994 40.9131 17.3205C39.3579 15.5502 36.8799 14.6565 33.4875 14.6565H22.2083L16.9788 41.4842ZM62.7454 41.4842H68.6072L70 34.3517H75.0244C77.2376 34.3517 79.0662 34.1219 80.4932 33.6537C81.9287 33.1941 83.2275 32.4111 84.3982 31.3216C85.3809 30.4194 86.1755 29.4321 86.7822 28.3427C87.3889 27.2617 87.8247 26.0617 88.0811 24.7509C88.7048 21.5762 88.2349 19.0994 86.6797 17.3205C85.1245 15.5502 82.6465 14.6565 79.2542 14.6565H67.9749L62.7454 41.4842Z" fill="black"/>
</svg>
