<svg width="76" height="67" viewBox="0 0 76 67" fill="none" xmlns="http://www.w3.org/2000/svg">
<g clip-path="url(#clip0_13_148)">
<path d="M61.928 21.5614C61.1352 21.2884 60.3357 21.0355 59.5302 20.8029C59.6655 20.248 59.79 19.6998 59.9006 19.1612C61.7159 10.3172 60.5292 3.19227 56.4758 0.846413C52.5895 -1.40248 46.2338 0.942502 39.8149 6.54926C39.1822 7.10282 38.5637 7.67233 37.9597 8.25725C37.5554 7.8683 37.144 7.4869 36.7256 7.11324C29.9982 1.11833 23.2551 -1.40832 19.2062 0.944254C15.3233 3.20016 14.1736 9.89807 15.8078 18.2797C15.9704 19.1099 16.154 19.9357 16.3584 20.7564C15.4039 21.0286 14.4829 21.3184 13.6015 21.6268C5.71418 24.3868 0.677246 28.712 0.677246 33.1984C0.677246 37.832 6.08463 42.4796 14.2996 45.2977C14.9656 45.5253 15.6371 45.7361 16.3136 45.9301C16.0939 46.814 15.8989 47.704 15.7287 48.5989C14.1707 56.8352 15.3874 63.3748 19.2597 65.6164C23.2592 67.9313 29.972 65.5521 36.5082 59.8174C37.0382 59.3512 37.5566 58.8718 38.0627 58.3796C38.7168 59.013 39.3883 59.6279 40.0765 60.2237C46.4081 65.6917 52.6611 67.8997 56.5297 65.652C60.5254 63.3304 61.8241 56.3051 60.1381 47.7578C60.0053 47.0882 59.8563 46.4219 59.6914 45.7595C60.1628 45.6193 60.6255 45.475 61.0766 45.3249C69.6169 42.4852 75.1735 37.8939 75.1735 33.1984C75.1735 28.6956 69.9739 24.3412 61.928 21.5614ZM60.0758 42.2933C59.6684 42.4285 59.2505 42.5591 58.8245 42.6861C57.8817 39.6904 56.6094 36.5051 55.0523 33.2139C56.5381 30.0012 57.7615 26.8565 58.6778 23.8804C59.44 24.1017 60.1794 24.3351 60.8924 24.5813C67.7862 26.9634 71.9911 30.4848 71.9911 33.1984C71.9911 36.0887 67.4498 39.8408 60.0758 42.2933ZM57.0162 48.3781C57.7618 52.1575 57.868 55.5746 57.3741 58.2461C56.9307 60.6466 56.0385 62.2468 54.935 62.8879C52.5875 64.2518 47.5668 62.479 42.1522 57.8025C41.5121 57.2485 40.8874 56.6768 40.279 56.0881C42.3783 53.784 44.4761 51.1054 46.5236 48.1305C50.125 47.8098 53.5274 47.2852 56.6129 46.5694C56.7615 47.169 56.896 47.7721 57.0162 48.3781ZM26.0747 62.6522C23.781 63.465 21.9541 63.4884 20.8497 62.8493C18.4999 61.4892 17.523 56.2382 18.8555 49.1948C19.0139 48.3624 19.1953 47.5347 19.3994 46.7125C22.4508 47.3901 25.8285 47.8773 29.4383 48.1711C31.4998 51.0821 33.6581 53.7577 35.8334 56.1006C35.3711 56.5496 34.8979 56.987 34.4142 57.4126C31.5237 59.9483 28.6273 61.7474 26.0747 62.6522ZM15.3292 42.2755C11.6966 41.0292 8.69665 39.4097 6.64044 37.6424C4.79258 36.0545 3.85993 34.4776 3.85993 33.1984C3.85993 30.4758 7.90397 27.0031 14.6491 24.6429C15.4677 24.3567 16.3244 24.0866 17.2134 23.833C18.1458 26.8764 19.3685 30.0584 20.8442 33.2761C19.3493 36.5414 18.1091 39.7742 17.1677 42.8535C16.5502 42.6759 15.9372 42.4832 15.3292 42.2755ZM18.9312 17.6661C17.5312 10.4851 18.4609 5.0682 20.8008 3.70864C23.293 2.26059 28.804 4.32519 34.6126 9.50174C34.9914 9.84006 35.364 10.1852 35.7304 10.5371C33.5659 12.8698 31.4273 15.5256 29.3842 18.4193C25.8806 18.7453 22.5268 19.2687 19.4433 19.9699C19.2533 19.2065 19.0826 18.4384 18.9312 17.6664V17.6661ZM51.0655 25.6301C50.3372 24.3675 49.5819 23.1208 48.8001 21.8908C51.177 22.1925 53.4544 22.5929 55.5929 23.0824C54.951 25.1479 54.1507 27.3072 53.2088 29.521C52.5202 28.2099 51.8057 26.9126 51.0655 25.6301ZM37.9612 12.8199C39.429 14.416 40.8991 16.1979 42.3451 18.1314C39.4118 17.9923 36.4736 17.9917 33.5403 18.1296C34.9877 16.214 36.4704 14.4344 37.9612 12.8199ZM24.7727 25.652C24.0418 26.9242 23.3406 28.2133 22.6697 29.5184C21.7431 27.3124 20.9501 25.1432 20.3027 23.0486C22.4281 22.5713 24.6947 22.1811 27.0565 21.885C26.266 23.1224 25.5045 24.3784 24.7727 25.6517V25.652ZM27.1243 44.739C24.6843 44.4656 22.3836 44.0956 20.2587 43.6312C20.9164 41.4992 21.7268 39.2838 22.6734 37.0306C23.3471 38.3366 24.0512 39.6265 24.7852 40.8993C25.5401 42.2077 26.3217 43.4893 27.1243 44.739ZM38.0491 53.8018C36.5405 52.1686 35.036 50.3616 33.5668 48.4182C34.9933 48.4742 36.4474 48.5029 37.9254 48.5029C39.4438 48.5029 40.9448 48.4687 42.4222 48.4027C40.9716 50.3811 39.507 52.1908 38.0491 53.8018ZM53.2387 36.9155C54.2345 39.1936 55.0738 41.3972 55.7402 43.4928C53.5804 43.9875 51.2483 44.3859 48.7911 44.6818C49.5785 43.429 50.3409 42.1606 51.0781 40.8773C51.8275 39.573 52.5479 38.252 53.2387 36.9155ZM48.3214 39.2815C47.193 41.249 46.0011 43.1791 44.7476 45.0688C42.4771 45.2302 40.2016 45.3103 37.9254 45.3091C35.607 45.3091 33.352 45.2367 31.1806 45.0953C29.8944 43.21 28.6798 41.2765 27.5393 39.299H27.5396C26.4044 37.332 25.3441 35.3224 24.361 33.2746C25.3416 31.2263 26.3987 29.2158 27.53 27.2473L27.5297 27.2476C28.6605 25.2785 29.8654 23.3533 31.1419 21.4761C33.3573 21.3079 35.6291 21.2202 37.9251 21.2202H37.9254C40.2319 21.2202 42.5066 21.3087 44.7214 21.4781C45.985 23.3526 47.1822 25.2712 48.3109 27.2303C49.4459 29.1945 50.517 31.1953 51.5224 33.2293C50.5273 35.2842 49.4597 37.3029 48.3214 39.2815ZM54.8864 3.61343C57.3808 5.0574 58.351 10.8803 56.7837 18.5163C56.6836 19.0035 56.5713 19.4997 56.4491 20.0029C53.358 19.2868 50.0019 18.7543 46.4881 18.4234C44.4412 15.4978 42.3201 12.838 40.1908 10.5354C40.7489 9.99548 41.3202 9.4696 41.9042 8.95821C47.4042 4.15463 52.5444 2.25796 54.8864 3.61343ZM37.9254 26.5218C41.5993 26.5218 44.5777 29.5111 44.5777 33.1984C44.5777 36.8857 41.5993 39.875 37.9254 39.875C34.2515 39.875 31.2731 36.8857 31.2731 33.1984C31.2731 29.5111 34.2515 26.5218 37.9254 26.5218Z" fill="#00D8FF"/>
</g>
<defs>
<clipPath id="clip0_13_148">
<rect width="74.5024" height="66.5907" fill="white" transform="translate(0.674072)"/>
</clipPath>
</defs>
</svg>
