<svg width="79" height="58" viewBox="0 0 79 58" fill="none" xmlns="http://www.w3.org/2000/svg">
<g clip-path="url(#clip0_13_150)">
<path d="M67.3361 33.0162C64.6526 33.03 62.3201 33.6708 60.3673 34.6181C59.6505 33.211 58.934 31.9574 58.8078 31.0379C58.667 29.9654 58.4986 29.3105 58.667 28.0289C58.8358 26.7472 59.5945 24.9221 59.5803 24.7829C59.5665 24.6437 59.4116 23.9888 57.8662 23.9751C56.3207 23.9611 54.9859 24.2676 54.8313 24.6715C54.6768 25.0754 54.3818 25.995 54.185 26.942C53.9181 28.3354 51.0942 33.3084 49.4785 35.9135C48.9585 34.8969 48.5089 34.0051 48.4104 33.2947C48.27 32.2221 48.1012 31.5673 48.27 30.2856C48.4387 29.004 49.1974 27.1792 49.1833 27.0397C49.1691 26.9005 49.0145 26.2456 47.4691 26.2319C45.9234 26.2178 44.5885 26.5243 44.4343 26.9283C44.2797 27.3325 44.111 28.2795 43.788 29.1991C43.4647 30.1186 39.7133 38.4215 38.7298 40.5666C38.3324 41.4348 37.9155 42.2941 37.4794 43.1439C37.4794 43.1439 37.4652 43.1857 37.423 43.2553C37.286 43.5218 37.1456 43.7865 37.0018 44.0494V44.0631C36.7909 44.4396 36.5661 44.7876 36.4537 44.7876C36.3694 44.7876 36.2148 43.7847 36.4817 42.4194C37.0437 39.5359 38.3785 35.0501 38.3646 34.8969C38.3646 34.8132 38.6174 34.0332 37.4936 33.629C36.3974 33.225 36.0042 33.8937 35.9056 33.8937C35.8074 33.8937 35.7369 34.1306 35.7369 34.1306C35.7369 34.1306 36.9596 29.0876 33.4048 29.0876C31.185 29.0876 28.1218 31.4977 26.6044 33.6708C24.8795 34.6015 23.156 35.5349 21.4339 36.471C20.6053 36.9308 19.7481 37.3905 18.9472 37.8222C18.8909 37.7667 18.8348 37.6968 18.7785 37.6412C14.479 33.0858 6.52682 29.8677 6.86399 23.7522C6.99054 21.5232 7.76311 15.6722 22.1366 8.56758C33.9667 2.78615 43.3806 4.38805 45.0104 7.94051C47.3425 13.0115 39.9664 22.4288 27.7425 23.7938C23.0779 24.3094 20.633 22.5262 20.0151 21.8575C19.3687 21.1609 19.2702 21.119 19.0313 21.2586C18.6381 21.4677 18.8909 22.0945 19.0313 22.4565C19.3968 23.4036 20.9 25.0754 23.4431 25.8976C25.6912 26.6217 31.1567 27.0259 37.7744 24.4904C45.1788 21.6484 50.9676 13.7497 49.2676 7.13268C47.5673 0.417942 36.3272 -1.797 25.6912 1.95024C19.3687 4.17952 12.5121 7.68985 7.58051 12.2593C1.7215 17.6921 0.794064 22.4147 1.17342 24.3931C2.53655 31.414 12.3015 35.9834 16.2074 39.3686C16.0106 39.48 15.8277 39.5777 15.6734 39.6613C13.7203 40.6224 6.27372 44.4811 4.41915 48.5629C2.31177 53.1879 4.75662 56.5038 6.37225 56.9492C11.3882 58.3285 16.5445 55.8489 19.3124 51.753C22.0802 47.6574 21.7431 42.3358 20.4646 39.898C20.4504 39.8702 20.4366 39.8421 20.4083 39.8143C20.9142 39.5218 21.4339 39.2153 21.9398 38.9228C22.8696 38.3778 23.8113 37.8529 24.764 37.3484C24.2861 38.6441 23.9348 40.1904 23.7664 42.4194C23.5555 45.0386 24.6372 48.4375 26.0564 49.7747C26.6888 50.3602 27.4334 50.374 27.9112 50.374C29.569 50.374 30.3139 49.0087 31.1428 47.3927C32.1543 45.4147 33.0676 43.1161 33.0676 43.1161C33.0676 43.1161 31.9295 49.3292 35.0207 49.3292C36.1446 49.3292 37.2826 47.8803 37.7885 47.1421V47.1558C37.7885 47.1558 37.8166 47.114 37.8729 47.0166C37.9853 46.8356 38.0555 46.7238 38.0555 46.7238V46.6963C38.5051 45.916 39.5169 44.1468 41.0201 41.2074C42.959 37.4183 44.8278 32.6819 44.8278 32.6819C44.8278 32.6819 44.9965 33.8381 45.5723 35.7605C45.9098 36.8889 46.6119 38.1287 47.1741 39.3267C46.7245 39.9538 46.4434 40.3019 46.4434 40.3019L46.4576 40.3159C46.0921 40.7894 45.6989 41.3048 45.2632 41.8067C43.7316 43.6174 41.9054 45.6934 41.6523 46.2921C41.357 47.0026 41.4275 47.5182 41.9897 47.9362C42.3971 48.2427 43.1275 48.2842 43.8723 48.2427C45.2493 48.145 46.2186 47.8107 46.6962 47.6019C47.4411 47.3372 48.3122 46.933 49.1269 46.334C50.6305 45.2334 51.5434 43.6592 51.4594 41.5838C51.4172 40.4414 51.0378 39.299 50.5741 38.2261C50.7148 38.0314 50.8411 37.8363 50.9818 37.6412C53.3561 34.2002 55.1968 30.4248 55.1968 30.4248C55.1968 30.4248 55.3656 31.581 55.9414 33.5038C56.2225 34.4789 56.7986 35.5377 57.3042 36.5684C55.0703 38.3657 53.6933 40.4551 53.2015 41.8204C52.3166 44.3559 53.0048 45.4981 54.3116 45.7627C54.9015 45.8882 55.7446 45.6095 56.3629 45.3448C57.1496 45.0941 58.0771 44.6624 58.9623 44.0213C60.4659 42.921 61.9128 41.3884 61.8284 39.313C61.7862 38.3657 61.5334 37.4321 61.1821 36.5265C63.0788 35.7468 65.5237 35.3148 68.6426 35.6769C75.3308 36.4569 76.6514 40.5943 76.3983 42.3361C76.1455 44.0772 74.7405 45.0245 74.2771 45.317C73.8131 45.6098 73.6588 45.7072 73.701 45.916C73.757 46.2225 73.9818 46.2088 74.3753 46.1529C74.9234 46.0555 77.888 44.7458 78.0143 41.5417C78.2252 37.4461 74.291 32.9744 67.3361 33.0162ZM15.7437 50.2625C13.5236 52.6585 10.4327 53.564 9.09792 52.798C7.66488 51.9759 8.22683 48.4375 10.9525 45.9023C12.6103 44.3559 14.746 42.9207 16.1652 42.0433C16.4882 41.8482 16.9661 41.5698 17.5422 41.2214C17.6404 41.1656 17.6968 41.1378 17.6968 41.1378L18.0339 40.9286C19.0313 44.5507 18.0761 47.7411 15.7437 50.2625ZM31.9015 39.3686C31.1286 41.2355 29.513 46.0137 28.5295 45.749C27.6865 45.5261 27.1664 41.9041 28.3608 38.3238C28.9649 36.5265 30.2434 34.3812 30.9882 33.5456C32.1965 32.2081 33.5313 31.7621 33.8543 32.3058C34.262 33.0162 32.3791 38.1984 31.9015 39.3686ZM45.2352 45.6931C44.9119 45.8604 44.603 45.9719 44.4623 45.8882C44.3641 45.8324 44.603 45.6095 44.603 45.6095C44.603 45.6095 46.275 43.8265 46.9352 43.0184C47.3148 42.5449 47.7641 41.9877 48.242 41.3606V41.5417C48.242 43.6733 46.1623 45.1082 45.2349 45.6931H45.2352ZM55.5198 43.3668C55.2809 43.1995 55.3231 42.6423 56.124 40.9009C56.4331 40.2182 57.1635 39.0761 58.4142 37.9755C58.5547 38.4212 58.6532 38.8532 58.639 39.2571C58.6249 41.9459 56.6862 42.9488 55.5198 43.3668Z" fill="#CD6799"/>
</g>
<defs>
<clipPath id="clip0_13_150">
<rect width="77.1397" height="57.3603" fill="white" transform="translate(0.960815)"/>
</clipPath>
</defs>
</svg>
