<svg width="54" height="54" viewBox="0 0 54 54" fill="none" xmlns="http://www.w3.org/2000/svg">
<path d="M11.3862 34.1382C11.3862 37.2784 8.85059 39.8117 5.71729 39.8117C2.58398 39.8117 0.0439453 37.274 0.0439453 34.1382C0.0439453 30.9979 2.57959 28.4646 5.71289 28.4646H11.3818V34.1382H11.3862ZM14.2207 34.1382C14.2207 30.9979 16.7563 28.4646 19.8897 28.4646C23.023 28.4646 25.5586 31.0023 25.5586 34.1382V48.3265C25.5586 51.4667 23.023 54 19.8897 54C16.7563 54 14.2207 51.4623 14.2207 48.3265V34.1382Z" fill="#E01E5A"/>
<path d="M19.8896 11.3517C16.752 11.3517 14.2207 8.81399 14.2207 5.67814C14.2207 2.53789 16.7563 0.00457764 19.8896 0.00457764C23.0229 0.00457764 25.5586 2.54229 25.5586 5.67814V11.3517H19.8896ZM19.8896 14.2325C23.0273 14.2325 25.5586 16.7702 25.5586 19.906C25.5586 23.0463 23.0229 25.5796 19.8896 25.5796H5.66895C2.53564 25.584 0 23.0463 0 19.906C0 16.7658 2.53564 14.2325 5.66895 14.2325H19.8896Z" fill="#36C5F0"/>
<path d="M42.6138 19.9058C42.6138 16.7656 45.1494 14.2323 48.2827 14.2323C51.4204 14.2323 53.9517 16.77 53.9517 19.9058C53.9517 23.0461 51.416 25.5794 48.2827 25.5794H42.6138V19.9058ZM39.7793 19.9058C39.7793 23.0461 37.2437 25.5794 34.1104 25.5794C30.9727 25.5794 28.4414 23.0417 28.4414 19.9058V5.67356C28.4414 2.53331 30.9771 0 34.1104 0C37.248 0 39.7793 2.53771 39.7793 5.67356V19.9058Z" fill="#2EB67D"/>
<path d="M34.1104 42.6485C37.248 42.6485 39.7793 45.1862 39.7793 48.3221C39.7793 51.4623 37.2437 53.9956 34.1104 53.9956C30.9727 53.9956 28.4414 51.4579 28.4414 48.3221V42.6485H34.1104ZM34.1104 39.8117C30.9727 39.8117 28.4414 37.274 28.4414 34.1382C28.4414 30.9979 30.9771 28.4646 34.1104 28.4646H48.3311C51.4688 28.4646 54 31.0023 54 34.1382C54 37.2784 51.4644 39.8117 48.3311 39.8117H34.1104Z" fill="#ECB22E"/>
</svg>
