<svg width="87" height="87" viewBox="0 0 87 87" fill="none" xmlns="http://www.w3.org/2000/svg">
<path d="M24.2915 36.9772C26.8107 26.9007 33.1085 21.8624 43.185 21.8624C58.2998 21.8624 60.1891 33.1985 67.7465 35.0878C72.7847 36.3474 77.1932 34.4581 80.9719 29.4198C78.4528 39.4963 72.155 44.5346 62.0784 44.5346C46.9637 44.5346 45.0743 33.1985 37.5169 31.3092C32.4787 30.0496 28.0702 31.9389 24.2915 36.9772ZM5.39807 59.6493C7.9172 49.5728 14.215 44.5346 24.2915 44.5346C39.4063 44.5346 41.2956 55.8707 48.853 57.76C53.8913 59.0196 58.2998 57.1302 62.0784 52.092C59.5593 62.1685 53.2615 67.2067 43.185 67.2067C28.0702 67.2067 26.1809 55.8707 18.6235 53.9813C13.5852 52.7217 9.17676 54.6111 5.39807 59.6493Z" fill="#44A8B3"/>
</svg>
