<svg width="65" height="65" viewBox="0 0 65 65" fill="none" xmlns="http://www.w3.org/2000/svg">
<path d="M58.9266 10.2172L47.2144 4.57844C46.553 4.25953 45.8087 4.15429 45.0848 4.27731C44.3609 4.40033 43.6932 4.74551 43.1742 5.265L4.83439 40.2188C4.36921 40.6408 4.09076 41.2304 4.06029 41.8578C4.02981 42.4852 4.24981 43.099 4.67189 43.5642C4.72267 43.6191 4.77345 43.6719 4.82829 43.7206L7.95845 46.5644C8.36747 46.9366 8.89396 47.1539 9.44647 47.1784C9.99899 47.2029 10.5426 47.0331 10.983 46.6984L57.1635 11.6797C57.5123 11.415 57.928 11.2529 58.364 11.2117C58.7999 11.1705 59.2387 11.2518 59.6309 11.4464C60.0231 11.6411 60.3532 11.9413 60.5841 12.3134C60.8149 12.6855 60.9373 13.1146 60.9375 13.5525V13.4164C60.9375 12.7479 60.7487 12.093 60.393 11.5271C60.0372 10.9611 59.5289 10.5071 58.9266 10.2172Z" fill="#0065A9"/>
<path d="M58.9266 54.7828L47.2144 60.4236C46.5528 60.7416 45.8087 60.8463 45.085 60.7234C44.3613 60.6004 43.6937 60.2557 43.1742 59.737L4.83439 24.7812C4.36921 24.3591 4.09076 23.7696 4.06029 23.1422C4.02981 22.5148 4.24981 21.901 4.67189 21.4358C4.72267 21.3809 4.77345 21.3281 4.82829 21.2794L7.95845 18.4356C8.36788 18.0618 8.89558 17.8436 9.44946 17.8191C10.0033 17.7946 10.5482 17.9653 10.9891 18.3016L57.1635 53.3203C57.5123 53.585 57.928 53.7471 58.364 53.7883C58.7999 53.8295 59.2387 53.7482 59.6309 53.5535C60.0231 53.3589 60.3532 53.0586 60.5841 52.6866C60.8149 52.3145 60.9373 51.8854 60.9375 51.4475V51.5937C60.9353 52.2604 60.7456 52.9131 60.39 53.477C60.0344 54.041 59.5272 54.4935 58.9266 54.7828Z" fill="#007ACC"/>
<path d="M47.2144 60.4236C46.5528 60.7416 45.8088 60.8463 45.0851 60.7233C44.3614 60.6004 43.6937 60.2557 43.1743 59.737C43.466 60.0249 43.8361 60.2203 44.2384 60.2987C44.6407 60.3771 45.0571 60.3351 45.4356 60.1778C45.8141 60.0206 46.1377 59.7551 46.366 59.4148C46.5943 59.0744 46.717 58.6742 46.7188 58.2643V6.7356C46.7191 6.32385 46.5973 5.92125 46.3686 5.57882C46.1399 5.23638 45.8148 4.96952 45.4343 4.81203C45.0539 4.65455 44.6353 4.61352 44.2315 4.69415C43.8277 4.77479 43.4569 4.97345 43.1661 5.26498C43.6852 4.74567 44.3527 4.40047 45.0765 4.27711C45.8003 4.15375 46.5445 4.25833 47.2063 4.57638L58.9164 10.207C59.5207 10.4954 60.0311 10.9489 60.3887 11.5149C60.7463 12.081 60.9366 12.7367 60.9375 13.4062V51.5937C60.9377 52.2628 60.7488 52.9182 60.3927 53.4846C60.0365 54.051 59.5276 54.5052 58.9246 54.795L47.2144 60.4236Z" fill="#1F9CF0"/>
</svg>
