<svg width="55" height="55" viewBox="0 0 55 55" fill="none" xmlns="http://www.w3.org/2000/svg">
<path d="M27.5 0C12.3132 0 0 12.3132 0 27.5C0 42.6868 12.3132 55 27.5 55C42.6868 55 55 42.6868 55 27.5C55 12.3132 42.6868 0 27.5 0ZM47.6103 16.5072C47.7087 17.2367 47.7625 18.02 47.7625 18.8615C47.7625 21.1845 47.3283 23.7984 46.0213 27.0703L39.021 47.3059C45.8333 43.3358 50.4167 35.9505 50.4167 27.5C50.4167 23.5164 49.4006 19.7701 47.6103 16.5072ZM27.9028 29.5052L21.0278 49.4857C23.0823 50.0899 25.2531 50.4211 27.5 50.4211C30.1676 50.4211 32.7279 49.9601 35.1091 49.1231C35.0464 49.0247 34.9927 48.9217 34.9434 48.8053L27.9028 29.5052ZM42.9688 26.3452C42.9688 23.512 41.9527 21.5515 41.0799 20.0252C39.9162 18.1364 38.8285 16.5385 38.8285 14.6497C38.8285 12.5415 40.4264 10.5811 42.6778 10.5811C42.7808 10.5811 42.8748 10.5945 42.9732 10.599C38.8957 6.86157 33.4619 4.58333 27.5 4.58333C19.4926 4.58333 12.452 8.69222 8.35205 14.9137C8.88916 14.9316 9.39494 14.9406 9.8291 14.9406C12.2237 14.9406 15.9387 14.6497 15.9387 14.6497C17.1741 14.578 17.3173 16.3908 16.0864 16.5385C16.0864 16.5385 14.8466 16.6817 13.4635 16.7578L21.8066 41.5812L26.8241 26.5422L23.2524 16.7578C22.017 16.6862 20.8488 16.5385 20.8488 16.5385C19.6134 16.4669 19.7567 14.578 20.992 14.6497C20.992 14.6497 24.7742 14.9406 27.0256 14.9406C29.4202 14.9406 33.1352 14.6497 33.1352 14.6497C34.3705 14.578 34.5138 16.3908 33.2829 16.5385C33.2829 16.5385 32.0386 16.6817 30.66 16.7578L38.9404 41.3888L41.3037 33.8961C42.3555 30.6242 42.9688 28.3057 42.9688 26.3452ZM4.58333 27.5C4.58333 36.5727 9.85596 44.41 17.5008 48.125L6.56616 18.1722C5.295 21.0234 4.58333 24.1744 4.58333 27.5ZM27.5 1.65161C30.9912 1.65161 34.375 2.33643 37.5618 3.68368C39.0926 4.33268 40.5697 5.13387 41.9527 6.06486C43.3223 6.99137 44.6114 8.05217 45.7796 9.22038C46.9478 10.3886 48.0131 11.6777 48.9351 13.0473C49.8706 14.4303 50.6718 15.9074 51.3163 17.4382C52.6636 20.625 53.3484 24.0088 53.3484 27.5C53.3484 30.9912 52.6636 34.375 51.3163 37.5618C50.6673 39.0926 49.8661 40.5697 48.9351 41.9527C48.0086 43.3223 46.9478 44.6114 45.7796 45.7796C44.6114 46.9478 43.3223 48.0131 41.9527 48.9351C40.5697 49.8706 39.0926 50.6718 37.5618 51.3163C34.375 52.6636 30.9912 53.3484 27.5 53.3484C24.0088 53.3484 20.625 52.6636 17.4382 51.3163C15.9074 50.6673 14.4303 49.8661 13.0473 48.9351C11.6777 48.0086 10.3886 46.9478 9.22038 45.7796C8.05217 44.6114 6.9869 43.3223 6.06486 41.9527C5.12939 40.5697 4.32821 39.0926 3.68368 37.5618C2.33195 34.375 1.65161 30.9912 1.65161 27.5C1.65161 24.0088 2.33643 20.625 3.68368 17.4382C4.33268 15.9074 5.13387 14.4303 6.06486 13.0473C6.99137 11.6777 8.05217 10.3886 9.22038 9.22038C10.3886 8.05217 11.6777 6.9869 13.0473 6.06486C14.4303 5.12939 15.9074 4.32821 17.4382 3.68368C20.625 2.33195 24.0088 1.65161 27.5 1.65161Z" fill="#32373C"/>
</svg>
